<?xml version="1.0" encoding="utf-8"?>
<!-- Generator: Adobe Illustrator 24.1.1, SVG Export Plug-In . SVG Version: 6.00 Build 0)  -->
<svg version="1.1" id="Layer_1" xmlns="http://www.w3.org/2000/svg" xmlns:xlink="http://www.w3.org/1999/xlink" x="0px" y="0px"
	 viewBox="0 0 1151.5 1999.2" style="enable-background:new 0 0 1151.5 1999.2;" xml:space="preserve">
<style type="text/css">
	.st0{fill:#F3C539;}
</style>
<g>
	<path class="st0" d="M684.1,1225.3c5.5,0,9.5-2.7,11.9-8.2c2.4-5.5,3.7-16.7,3.7-33.8v-17.1c0-18.2-1.2-30.2-3.5-35.9
		c-2.3-5.7-6.2-8.6-11.7-8.6c-5.5,0-9.6,3-12.4,8.9c-2.8,6-4.2,17.8-4.2,35.5v18.9c0,15.6,1.3,26.3,4,31.9
		C674.5,1222.5,678.6,1225.3,684.1,1225.3z"/>
	<path class="st0" d="M549.5,820.7v5.6c0,12.1,0.6,20,1.9,23.5c1.3,3.5,3.7,5.3,7.4,5.3c3.6,0,7-3,10.1-8.9c3.2-6,4.7-14.2,4.7-24.7
		v-32.6h-2.4C556.7,788.9,549.5,799.5,549.5,820.7z"/>
	<path class="st0" d="M504,1121.7c-5.1,0-9.3,1.5-12.4,4.4c-3.1,2.9-5.4,7.8-6.8,14.5c-2.1,10.5-3.1,26.5-3.1,48v27.3
		c0,25.4,0.8,40.7,2.3,45.9c1.5,5.1,3.1,9.3,4.7,12.6c2.6,5.6,7.6,8.4,15,8.4c9.1,0,15.1-5.3,17.9-15.8c2.1-7.5,3.1-24.3,3.1-50.4
		v-29.8c0-22.6-1.2-39.1-3.7-49.5C518.5,1126.9,512.9,1121.7,504,1121.7z"/>
	<path class="st0" d="M0,0v1999.2h1151.5V0H0z M672.4,859.2h19.3v-154h-19.3v-6.3h84.4v32.2c3.7-10.7,9.5-19.4,17.2-25.9
		c7.7-6.5,19.4-9.8,35-9.8c36.2,0,54.3,19.5,54.3,58.5v105.4h19.6v6.3h-99v-6.3H798V745.5c0-14-0.9-23-2.8-27.1
		c-1.9-4.1-5.3-6.1-10.2-6.1c-7.5,0-14.1,4.9-19.8,14.7c-5.7,9.8-8.6,21.7-8.6,35.7v96.6h15v6.3h-99.4V859.2z M622.8,709.6
		c10.6,9.4,15.9,26.8,15.9,52v71c0,12.1,3.4,18.2,10.1,18.2c7.9,0,12.6-12,14-36l5.3,0.3c-0.9,20.5-4.8,34.7-11.5,42.4
		c-6.8,7.7-17.9,11.5-33.3,11.5c-28,0-44.1-8.6-48.3-25.9c-3,8.9-7.6,15.4-13.6,19.6c-6.1,4.2-14.9,6.3-26.6,6.3
		c-34.5,0-51.8-14.1-51.8-42.3c0-16.6,6.6-27.9,19.8-34.1c13.2-6.2,33.4-9.3,60.7-9.3h10.1v-27c0-22.2-1.2-37-3.7-44.6
		c-2.5-7.6-7.2-11.4-14.2-11.4c-4.2,0-8,1.1-11.4,3.3c-3.4,2.2-5.1,5.3-5.1,9.1c0,3.9,0.7,7.8,2.1,11.7h8.8
		c1.9,4.9,2.8,10.8,2.8,17.7c0,6.9-2.9,12.8-8.8,17.8c-5.8,5-13.2,7.5-22,7.5c-20.1,0-30.1-9.7-30.1-29c0-28.7,24.4-43.1,73.1-43.1
		C593,695.4,612.2,700.1,622.8,709.6z M396.6,1186.5h-13.6v98.7h-5.3c-4.2-5.8-10.1-8.8-17.9-8.8c-3.3,0-13,2.1-29.2,6.3
		c-16.2,4.2-30,6.3-41.5,6.3c-38,0-67.5-10.3-88.4-30.8c-20.9-20.5-31.3-51.4-31.3-92.6c0-41.2,10.9-73,32.7-95.4
		c21.8-22.4,51.2-33.6,88-33.6c14.2,0,28.5,1.8,42.9,5.4c14.4,3.6,22.7,5.4,25,5.4c2.3,0,4.1-0.5,5.3-1.6c1.2-1,2.5-2.9,3.9-5.4h3.9
		l2.8,76h-6.3c-11.4-22.6-22.9-40.4-34.5-53.4c-11.6-13-24.4-19.4-38.7-19.4c-35.7,0-53.5,34.9-53.5,104.6v27.7
		c0,35,4.4,61.4,13.1,79.3c8.8,17.9,21.3,26.8,37.6,26.8c11.4,0,18.7-2.1,21.9-6.3s4.7-11.3,4.7-21.4v-67.9h-22.4v-7.7h100.8V1186.5
		z M375.2,869L286,627.2h-16.1v-6.6h114.4v6.6h-24.8l58.8,175l60.9-175h-27.3v-6.6h53.5v6.6H489L404.6,869H375.2z M503,1289
		c-29.2,0-51.2-7.5-66.1-22.4c-14.9-14.9-22.4-36.3-22.4-64.2c0-27.9,8-49.3,24-64.4c16-15,38.4-22.6,67.4-22.6
		c28.9,0,50.5,6.9,64.8,20.8c14.2,13.9,21.4,35.1,21.4,63.5C591.9,1259.3,562.2,1289,503,1289z M755.8,1355c-16,12-40.9,18-74.7,18
		c-57.6,0-86.5-12.5-86.5-37.5c0-13.5,9-22.9,27-28l21,9.5c-1.9,6.8-2.8,13.2-2.8,19.3c0,20.1,14.9,30.1,44.8,30.1
		c18.2,0,32.2-3.4,42-10.1c9.8-6.8,14.7-15.2,14.7-25.2c0-10-3-16.7-8.9-20.1c-6-3.4-17.8-5.1-35.5-5.1h-34
		c-18.9,0-32.4-3.1-40.6-9.5c-8.2-6.3-12.3-14.1-12.3-23.3c0-9.2,2.9-16.9,8.8-23.1c5.8-6.2,16.2-13.8,31.1-22.9
		c-27.1-7.7-40.6-25.4-40.6-53.2c0-17.5,6.3-31.6,18.9-42.3c12.6-10.7,31.5-16.1,56.7-16.1c15.2,0,28.1,2.9,38.9,8.8
		c-1.4-6.3-2.1-12-2.1-17.2c0-13.1,3.5-22.5,10.5-28.3c7-5.8,14.8-8.8,23.5-8.8c8.6,0,15.6,2.3,20.8,6.8c5.3,4.6,7.9,10.8,7.9,18.7
		c0,7.9-2.1,13.8-6.3,17.7c-4.2,3.8-9.3,5.8-15.2,5.8s-10.8-1.6-14.7-4.7c-3.8-3.1-5.9-7.6-6.1-13.5l9.8-6
		c1.4-7.2-1.4-10.8-8.4-10.8c-10,0-15,7.7-15,23.1c0,6.1,0.8,13.1,2.4,21c17.7,11.9,26.6,27.1,26.6,45.7s-6.4,33-19.3,43.2
		c-12.8,10.3-30.2,15.4-52.2,15.4c-9.1,0-18.6-0.9-28.4-2.8c-10.3,6.5-15.4,11.4-15.4,14.7c0,3.3,7.5,4.9,22.4,4.9h35.7
		c53,0,79.4,19,79.4,57.1C779.8,1326.7,771.8,1343,755.8,1355z M994.7,1285.5h-99v-6.3H910v-113.8c0-14-0.9-23-2.8-27.1
		c-1.9-4.1-5.3-6.1-10.1-6.1c-7.5,0-14.1,4.9-19.8,14.7c-5.7,9.8-8.6,21.7-8.6,35.7v96.6h15v6.3h-99.4v-6.3h19.3v-249.9h-19.3v-6.3
		h84.3v128.1c3.7-10.7,9.5-19.4,17.2-25.9c7.7-6.5,19.4-9.8,35-9.8c36.2,0,54.3,19.5,54.3,58.4v105.4h19.6V1285.5z"/>
</g>
</svg>
